<svg xmlns="http://www.w3.org/2000/svg" version="1.1" xmlns:xlink="http://www.w3.org/1999/xlink" xmlns:svgjs="http://svgjs.com/svgjs" width="1440" height="560" preserveAspectRatio="none" viewBox="0 0 1440 560"><g mask="url(&quot;#SvgjsMask1218&quot;)" fill="none"><path d="M395.77 468.52L536.07 549.52L536.07 711.52L395.77 792.52L255.47 711.52L255.47 549.52z" stroke="rgba(88, 13, 17, 1)" stroke-width="2"></path><path d="M379.57 468.52 a16.2 16.2 0 1 0 32.4 0 a16.2 16.2 0 1 0 -32.4 0zM519.87 549.52 a16.2 16.2 0 1 0 32.4 0 a16.2 16.2 0 1 0 -32.4 0zM519.87 711.52 a16.2 16.2 0 1 0 32.4 0 a16.2 16.2 0 1 0 -32.4 0zM379.57 792.52 a16.2 16.2 0 1 0 32.4 0 a16.2 16.2 0 1 0 -32.4 0zM239.27 711.52 a16.2 16.2 0 1 0 32.4 0 a16.2 16.2 0 1 0 -32.4 0zM239.27 549.52 a16.2 16.2 0 1 0 32.4 0 a16.2 16.2 0 1 0 -32.4 0z" fill="rgba(88, 13, 17, 1)"></path><path d="M73.54 534.12L154.08 580.62L154.08 673.62L73.54 720.12L-7 673.62L-7 580.62zM556.8 255.12L637.34 301.62L637.34 394.62L556.8 441.12L476.25 394.62L476.25 301.62zM556.8 534.12L637.34 580.62L637.34 673.62L556.8 720.12L476.25 673.62L476.25 580.62zM717.88 -23.88L798.42 22.62L798.42 115.62L717.88 162.12L637.34 115.62L637.34 22.62zM717.88 534.12L798.42 580.62L798.42 673.62L717.88 720.12L637.34 673.62L637.34 580.62zM959.51 394.62L1040.05 441.12L1040.05 534.12L959.51 580.62L878.97 534.12L878.97 441.12zM1040.05 255.12L1120.59 301.62L1120.59 394.62L1040.05 441.12L959.51 394.62L959.51 301.62zM1201.14 -23.88L1281.68 22.62L1281.68 115.62L1201.14 162.12L1120.59 115.62L1120.59 22.62zM1281.68 115.62L1362.22 162.12L1362.22 255.12L1281.68 301.62L1201.14 255.12L1201.14 162.12zM1281.68 394.62L1362.22 441.12L1362.22 534.12L1281.68 580.62L1201.14 534.12L1201.14 441.12zM1362.22 -23.88L1442.77 22.62L1442.77 115.62L1362.22 162.12L1281.68 115.62L1281.68 22.62zM1442.77 115.62L1523.31 162.12L1523.31 255.12L1442.77 301.62L1362.22 255.12L1362.22 162.12zM1362.22 255.12L1442.77 301.62L1442.77 394.62L1362.22 441.12L1281.68 394.62L1281.68 301.62z" stroke="rgba(88, 13, 17, 1)" stroke-width="2"></path></g><defs><mask id="SvgjsMask1218"><rect width="1440" height="560" fill="#ffffff"></rect></mask></defs></svg>