<svg xmlns="http://www.w3.org/2000/svg" version="1.1" xmlns:xlink="http://www.w3.org/1999/xlink" xmlns:svgjs="http://svgjs.com/svgjs" width="1440" height="560" preserveAspectRatio="none" viewBox="0 0 1440 560"><g mask="url(&quot;#SvgjsMask1346&quot;)" fill="none"><rect width="1440" height="560" x="0" y="0" fill="rgba(255, 255, 255, 1)"></rect><g mask="url(&quot;#SvgjsMask1347&quot;)"><path d="M1282.5 283.5L1255.5 310.5L1228.5 310.5M1309.5 283.5L1282.5 310.5M1471.5 283.5L1444.5 283.5L1417.5 283.5L1390.5 283.5L1363.5 283.5L1336.5 283.5L1309.5 283.5L1282.5 283.5L1255.5 283.5" stroke="rgba(88, 13, 17, 1)" stroke-width="4.5"></path><path d="M1248.75 283.5 a6.75 6.75 0 1 0 13.5 0 a6.75 6.75 0 1 0 -13.5 0zM1221.75 310.5 a6.75 6.75 0 1 0 13.5 0 a6.75 6.75 0 1 0 -13.5 0zM1275.75 310.5 a6.75 6.75 0 1 0 13.5 0 a6.75 6.75 0 1 0 -13.5 0z" fill="rgba(88, 13, 17, 1)"></path><path d="M661.5 148.5L634.5 175.5L607.5 175.5L580.5 175.5L553.5 175.5M796.5 202.5L769.5 202.5M688.5 175.5L661.5 175.5L634.5 202.5L607.5 202.5L580.5 202.5L553.5 202.5L526.5 202.5L499.5 175.5L472.5 175.5L445.5 175.5L418.5 148.5M1201.5 229.5L1174.5 256.5L1147.5 256.5L1120.5 256.5L1093.5 256.5L1066.5 256.5L1039.5 256.5L1012.5 256.5L985.5 256.5M931.5 202.5L904.5 229.5L877.5 229.5L850.5 229.5L823.5 229.5L796.5 229.5L769.5 229.5L742.5 229.5M823.5 202.5L796.5 175.5L769.5 148.5L742.5 148.5L715.5 148.5M1228.5 229.5L1201.5 256.5L1174.5 283.5L1147.5 283.5L1120.5 283.5L1093.5 283.5L1066.5 283.5M958.5 202.5L931.5 229.5L904.5 256.5L877.5 256.5L850.5 256.5L823.5 256.5L796.5 256.5L769.5 256.5L742.5 256.5M985.5 202.5L958.5 229.5L931.5 256.5L904.5 283.5M1471.5 256.5L1444.5 256.5L1417.5 256.5L1390.5 256.5L1363.5 256.5L1336.5 256.5L1309.5 256.5L1282.5 229.5L1255.5 229.5L1228.5 229.5L1201.5 229.5L1174.5 229.5L1147.5 229.5L1120.5 229.5L1093.5 229.5L1066.5 229.5L1039.5 229.5L1012.5 202.5L985.5 202.5L958.5 202.5L931.5 202.5L904.5 202.5L877.5 202.5L850.5 202.5L823.5 202.5L796.5 202.5L769.5 175.5L742.5 175.5L715.5 175.5L688.5 175.5L661.5 148.5L634.5 148.5L607.5 148.5L580.5 148.5L553.5 148.5L526.5 148.5" stroke="rgba(88, 13, 17, 1)" stroke-width="4.5"></path><path d="M519.75 148.5 a6.75 6.75 0 1 0 13.5 0 a6.75 6.75 0 1 0 -13.5 0zM546.75 175.5 a6.75 6.75 0 1 0 13.5 0 a6.75 6.75 0 1 0 -13.5 0zM762.75 202.5 a6.75 6.75 0 1 0 13.5 0 a6.75 6.75 0 1 0 -13.5 0zM411.75 148.5 a6.75 6.75 0 1 0 13.5 0 a6.75 6.75 0 1 0 -13.5 0zM978.75 256.5 a6.75 6.75 0 1 0 13.5 0 a6.75 6.75 0 1 0 -13.5 0zM735.75 229.5 a6.75 6.75 0 1 0 13.5 0 a6.75 6.75 0 1 0 -13.5 0zM708.75 148.5 a6.75 6.75 0 1 0 13.5 0 a6.75 6.75 0 1 0 -13.5 0zM1059.75 283.5 a6.75 6.75 0 1 0 13.5 0 a6.75 6.75 0 1 0 -13.5 0zM735.75 256.5 a6.75 6.75 0 1 0 13.5 0 a6.75 6.75 0 1 0 -13.5 0zM897.75 283.5 a6.75 6.75 0 1 0 13.5 0 a6.75 6.75 0 1 0 -13.5 0z" fill="rgba(88, 13, 17, 1)"></path><path d="M1363.5 310.5L1336.5 310.5L1309.5 310.5M958.5 364.5L931.5 337.5L904.5 337.5L877.5 337.5L850.5 337.5L823.5 337.5L796.5 337.5M1147.5 337.5L1120.5 310.5M1039.5 364.5L1012.5 391.5M1201.5 337.5L1174.5 310.5L1147.5 310.5M1471.5 310.5L1444.5 310.5L1417.5 310.5L1390.5 310.5L1363.5 310.5L1336.5 337.5L1309.5 337.5L1282.5 337.5L1255.5 337.5L1228.5 337.5L1201.5 337.5L1174.5 337.5L1147.5 337.5L1120.5 337.5L1093.5 337.5L1066.5 364.5L1039.5 364.5L1012.5 364.5L985.5 364.5L958.5 364.5L931.5 364.5" stroke="rgba(88, 13, 17, 1)" stroke-width="4.5"></path><path d="M924.75 364.5 a6.75 6.75 0 1 0 13.5 0 a6.75 6.75 0 1 0 -13.5 0zM1302.75 310.5 a6.75 6.75 0 1 0 13.5 0 a6.75 6.75 0 1 0 -13.5 0zM789.75 337.5 a6.75 6.75 0 1 0 13.5 0 a6.75 6.75 0 1 0 -13.5 0zM1113.75 310.5 a6.75 6.75 0 1 0 13.5 0 a6.75 6.75 0 1 0 -13.5 0zM1005.75 391.5 a6.75 6.75 0 1 0 13.5 0 a6.75 6.75 0 1 0 -13.5 0zM1140.75 310.5 a6.75 6.75 0 1 0 13.5 0 a6.75 6.75 0 1 0 -13.5 0z" fill="rgba(88, 13, 17, 1)"></path><path d="M1336.5 229.5L1309.5 229.5M1471.5 229.5L1444.5 229.5L1417.5 229.5L1390.5 229.5L1363.5 229.5L1336.5 229.5L1309.5 202.5L1282.5 202.5L1255.5 202.5L1228.5 202.5L1201.5 202.5L1174.5 202.5L1147.5 202.5L1120.5 202.5L1093.5 202.5L1066.5 202.5L1039.5 202.5L1012.5 175.5L985.5 175.5L958.5 175.5L931.5 175.5L904.5 175.5L877.5 175.5" stroke="rgba(88, 13, 17, 1)" stroke-width="4.5"></path><path d="M870.75 175.5 a6.75 6.75 0 1 0 13.5 0 a6.75 6.75 0 1 0 -13.5 0zM1302.75 229.5 a6.75 6.75 0 1 0 13.5 0 a6.75 6.75 0 1 0 -13.5 0z" fill="rgba(88, 13, 17, 1)"></path><path d="M823.5 445.5L796.5 418.5L769.5 418.5L742.5 418.5L715.5 391.5L688.5 391.5L661.5 391.5L634.5 364.5L607.5 364.5L580.5 364.5L553.5 364.5L526.5 337.5L499.5 337.5M580.5 418.5L553.5 391.5L526.5 391.5M958.5 418.5L931.5 391.5L904.5 391.5L877.5 391.5L850.5 391.5M688.5 418.5L661.5 445.5M877.5 445.5L850.5 418.5L823.5 418.5L796.5 391.5M985.5 418.5L958.5 391.5M1066.5 391.5L1039.5 391.5M904.5 445.5L877.5 418.5M607.5 418.5L580.5 391.5M1471.5 337.5L1444.5 337.5L1417.5 337.5L1390.5 337.5L1363.5 337.5L1336.5 364.5L1309.5 364.5L1282.5 364.5L1255.5 364.5L1228.5 364.5L1201.5 364.5L1174.5 364.5L1147.5 364.5L1120.5 364.5L1093.5 364.5L1066.5 391.5L1039.5 418.5L1012.5 418.5L985.5 418.5L958.5 418.5L931.5 418.5L904.5 445.5L877.5 445.5L850.5 445.5L823.5 445.5L796.5 445.5L769.5 445.5L742.5 445.5L715.5 445.5L688.5 418.5L661.5 418.5L634.5 418.5L607.5 418.5L580.5 418.5L553.5 418.5L526.5 418.5L499.5 418.5" stroke="rgba(88, 13, 17, 1)" stroke-width="4.5"></path><path d="M492.75 418.5 a6.75 6.75 0 1 0 13.5 0 a6.75 6.75 0 1 0 -13.5 0zM492.75 337.5 a6.75 6.75 0 1 0 13.5 0 a6.75 6.75 0 1 0 -13.5 0zM519.75 391.5 a6.75 6.75 0 1 0 13.5 0 a6.75 6.75 0 1 0 -13.5 0zM843.75 391.5 a6.75 6.75 0 1 0 13.5 0 a6.75 6.75 0 1 0 -13.5 0zM654.75 445.5 a6.75 6.75 0 1 0 13.5 0 a6.75 6.75 0 1 0 -13.5 0zM789.75 391.5 a6.75 6.75 0 1 0 13.5 0 a6.75 6.75 0 1 0 -13.5 0zM951.75 391.5 a6.75 6.75 0 1 0 13.5 0 a6.75 6.75 0 1 0 -13.5 0zM1032.75 391.5 a6.75 6.75 0 1 0 13.5 0 a6.75 6.75 0 1 0 -13.5 0zM870.75 418.5 a6.75 6.75 0 1 0 13.5 0 a6.75 6.75 0 1 0 -13.5 0zM573.75 391.5 a6.75 6.75 0 1 0 13.5 0 a6.75 6.75 0 1 0 -13.5 0z" fill="rgba(88, 13, 17, 1)"></path><path d="M877.5 148.5L850.5 148.5M823.5 121.5L796.5 148.5M1066.5 175.5L1039.5 148.5M1363.5 202.5L1336.5 175.5M1390.5 202.5L1363.5 175.5M1471.5 202.5L1444.5 202.5L1417.5 202.5L1390.5 202.5L1363.5 202.5L1336.5 202.5L1309.5 175.5L1282.5 175.5L1255.5 175.5L1228.5 175.5L1201.5 175.5L1174.5 175.5L1147.5 175.5L1120.5 175.5L1093.5 175.5L1066.5 175.5L1039.5 175.5L1012.5 148.5L985.5 148.5L958.5 148.5L931.5 148.5L904.5 148.5L877.5 148.5L850.5 121.5L823.5 121.5L796.5 121.5L769.5 121.5L742.5 121.5L715.5 121.5" stroke="rgba(88, 13, 17, 1)" stroke-width="4.5"></path><path d="M708.75 121.5 a6.75 6.75 0 1 0 13.5 0 a6.75 6.75 0 1 0 -13.5 0zM843.75 148.5 a6.75 6.75 0 1 0 13.5 0 a6.75 6.75 0 1 0 -13.5 0zM789.75 148.5 a6.75 6.75 0 1 0 13.5 0 a6.75 6.75 0 1 0 -13.5 0zM1032.75 148.5 a6.75 6.75 0 1 0 13.5 0 a6.75 6.75 0 1 0 -13.5 0zM1329.75 175.5 a6.75 6.75 0 1 0 13.5 0 a6.75 6.75 0 1 0 -13.5 0zM1356.75 175.5 a6.75 6.75 0 1 0 13.5 0 a6.75 6.75 0 1 0 -13.5 0z" fill="rgba(88, 13, 17, 1)"></path><path d="M607.5 472.5L580.5 472.5L553.5 472.5M634.5 472.5L607.5 445.5M1471.5 364.5L1444.5 364.5L1417.5 364.5L1390.5 364.5L1363.5 364.5L1336.5 391.5L1309.5 391.5L1282.5 391.5L1255.5 391.5L1228.5 391.5L1201.5 391.5L1174.5 391.5L1147.5 391.5L1120.5 391.5L1093.5 391.5L1066.5 418.5L1039.5 445.5L1012.5 445.5L985.5 445.5L958.5 445.5L931.5 445.5L904.5 472.5L877.5 472.5L850.5 472.5L823.5 472.5L796.5 472.5L769.5 472.5L742.5 472.5L715.5 472.5L688.5 472.5L661.5 472.5L634.5 472.5L607.5 472.5L580.5 445.5" stroke="rgba(88, 13, 17, 1)" stroke-width="4.5"></path><path d="M573.75 445.5 a6.75 6.75 0 1 0 13.5 0 a6.75 6.75 0 1 0 -13.5 0zM546.75 472.5 a6.75 6.75 0 1 0 13.5 0 a6.75 6.75 0 1 0 -13.5 0zM600.75 445.5 a6.75 6.75 0 1 0 13.5 0 a6.75 6.75 0 1 0 -13.5 0z" fill="rgba(88, 13, 17, 1)"></path><path d="M958.5 121.5L931.5 94.5L904.5 94.5L877.5 94.5M1417.5 175.5L1390.5 175.5M1039.5 121.5L1012.5 94.5L985.5 94.5L958.5 94.5L931.5 67.5M661.5 94.5L634.5 121.5L607.5 121.5L580.5 121.5M715.5 94.5L688.5 67.5L661.5 67.5L634.5 67.5L607.5 67.5M823.5 94.5L796.5 67.5L769.5 67.5L742.5 67.5L715.5 67.5M688.5 94.5L661.5 121.5M1471.5 175.5L1444.5 175.5L1417.5 175.5L1390.5 148.5L1363.5 148.5L1336.5 148.5L1309.5 148.5L1282.5 148.5L1255.5 148.5L1228.5 148.5L1201.5 148.5L1174.5 148.5L1147.5 148.5L1120.5 148.5L1093.5 148.5L1066.5 121.5L1039.5 121.5L1012.5 121.5L985.5 121.5L958.5 121.5L931.5 121.5L904.5 121.5L877.5 121.5L850.5 94.5L823.5 94.5L796.5 94.5L769.5 94.5L742.5 94.5L715.5 94.5L688.5 94.5L661.5 94.5L634.5 94.5" stroke="rgba(88, 13, 17, 1)" stroke-width="4.5"></path><path d="M627.75 94.5 a6.75 6.75 0 1 0 13.5 0 a6.75 6.75 0 1 0 -13.5 0zM870.75 94.5 a6.75 6.75 0 1 0 13.5 0 a6.75 6.75 0 1 0 -13.5 0zM1383.75 175.5 a6.75 6.75 0 1 0 13.5 0 a6.75 6.75 0 1 0 -13.5 0zM924.75 67.5 a6.75 6.75 0 1 0 13.5 0 a6.75 6.75 0 1 0 -13.5 0zM573.75 121.5 a6.75 6.75 0 1 0 13.5 0 a6.75 6.75 0 1 0 -13.5 0zM600.75 67.5 a6.75 6.75 0 1 0 13.5 0 a6.75 6.75 0 1 0 -13.5 0zM708.75 67.5 a6.75 6.75 0 1 0 13.5 0 a6.75 6.75 0 1 0 -13.5 0zM654.75 121.5 a6.75 6.75 0 1 0 13.5 0 a6.75 6.75 0 1 0 -13.5 0z" fill="rgba(88, 13, 17, 1)"></path><path d="M1309.5 418.5L1282.5 445.5L1255.5 445.5L1228.5 445.5L1201.5 445.5M1336.5 418.5L1309.5 445.5L1282.5 472.5L1255.5 472.5L1228.5 472.5M1012.5 472.5L985.5 499.5M1417.5 391.5L1390.5 418.5L1363.5 418.5L1336.5 445.5L1309.5 472.5L1282.5 499.5L1255.5 499.5L1228.5 499.5L1201.5 499.5M1174.5 418.5L1147.5 445.5L1120.5 445.5L1093.5 445.5M958.5 472.5L931.5 499.5M1444.5 391.5L1417.5 418.5L1390.5 445.5M1471.5 391.5L1444.5 391.5L1417.5 391.5L1390.5 391.5L1363.5 391.5L1336.5 418.5L1309.5 418.5L1282.5 418.5L1255.5 418.5L1228.5 418.5L1201.5 418.5L1174.5 418.5L1147.5 418.5L1120.5 418.5L1093.5 418.5L1066.5 445.5L1039.5 472.5L1012.5 472.5L985.5 472.5L958.5 472.5L931.5 472.5L904.5 499.5L877.5 499.5L850.5 499.5L823.5 499.5L796.5 499.5L769.5 499.5L742.5 499.5L715.5 499.5L688.5 499.5L661.5 499.5L634.5 499.5L607.5 499.5L580.5 499.5L553.5 499.5" stroke="rgba(88, 13, 17, 1)" stroke-width="4.5"></path><path d="M546.75 499.5 a6.75 6.75 0 1 0 13.5 0 a6.75 6.75 0 1 0 -13.5 0zM1194.75 445.5 a6.75 6.75 0 1 0 13.5 0 a6.75 6.75 0 1 0 -13.5 0zM1221.75 472.5 a6.75 6.75 0 1 0 13.5 0 a6.75 6.75 0 1 0 -13.5 0zM978.75 499.5 a6.75 6.75 0 1 0 13.5 0 a6.75 6.75 0 1 0 -13.5 0zM1194.75 499.5 a6.75 6.75 0 1 0 13.5 0 a6.75 6.75 0 1 0 -13.5 0zM1086.75 445.5 a6.75 6.75 0 1 0 13.5 0 a6.75 6.75 0 1 0 -13.5 0zM924.75 499.5 a6.75 6.75 0 1 0 13.5 0 a6.75 6.75 0 1 0 -13.5 0zM1383.75 445.5 a6.75 6.75 0 1 0 13.5 0 a6.75 6.75 0 1 0 -13.5 0z" fill="rgba(88, 13, 17, 1)"></path><path d="M1309.5 121.5L1282.5 94.5L1255.5 94.5L1228.5 94.5L1201.5 94.5M1066.5 94.5L1039.5 94.5M1147.5 121.5L1120.5 94.5L1093.5 94.5L1066.5 67.5M1444.5 148.5L1417.5 121.5L1390.5 94.5L1363.5 94.5M1471.5 148.5L1444.5 148.5L1417.5 148.5L1390.5 121.5L1363.5 121.5L1336.5 121.5L1309.5 121.5L1282.5 121.5L1255.5 121.5L1228.5 121.5L1201.5 121.5L1174.5 121.5L1147.5 121.5L1120.5 121.5L1093.5 121.5L1066.5 94.5L1039.5 67.5L1012.5 67.5" stroke="rgba(88, 13, 17, 1)" stroke-width="4.5"></path><path d="M1005.75 67.5 a6.75 6.75 0 1 0 13.5 0 a6.75 6.75 0 1 0 -13.5 0zM1194.75 94.5 a6.75 6.75 0 1 0 13.5 0 a6.75 6.75 0 1 0 -13.5 0zM1032.75 94.5 a6.75 6.75 0 1 0 13.5 0 a6.75 6.75 0 1 0 -13.5 0zM1059.75 67.5 a6.75 6.75 0 1 0 13.5 0 a6.75 6.75 0 1 0 -13.5 0zM1356.75 94.5 a6.75 6.75 0 1 0 13.5 0 a6.75 6.75 0 1 0 -13.5 0z" fill="rgba(88, 13, 17, 1)"></path></g></g><defs><mask id="SvgjsMask1346"><rect width="1440" height="560" fill="#ffffff"></rect></mask><mask id="SvgjsMask1347"><rect width="1440" height="560" fill="white"></rect><path d="M1252.12 283.5 a3.38 3.38 0 1 0 6.76 0 a3.38 3.38 0 1 0 -6.76 0zM1225.12 310.5 a3.38 3.38 0 1 0 6.76 0 a3.38 3.38 0 1 0 -6.76 0zM1279.12 310.5 a3.38 3.38 0 1 0 6.76 0 a3.38 3.38 0 1 0 -6.76 0z" fill="black"></path><path d="M523.12 148.5 a3.38 3.38 0 1 0 6.76 0 a3.38 3.38 0 1 0 -6.76 0zM550.12 175.5 a3.38 3.38 0 1 0 6.76 0 a3.38 3.38 0 1 0 -6.76 0zM766.12 202.5 a3.38 3.38 0 1 0 6.76 0 a3.38 3.38 0 1 0 -6.76 0zM415.12 148.5 a3.38 3.38 0 1 0 6.76 0 a3.38 3.38 0 1 0 -6.76 0zM982.12 256.5 a3.38 3.38 0 1 0 6.76 0 a3.38 3.38 0 1 0 -6.76 0zM739.12 229.5 a3.38 3.38 0 1 0 6.76 0 a3.38 3.38 0 1 0 -6.76 0zM712.12 148.5 a3.38 3.38 0 1 0 6.76 0 a3.38 3.38 0 1 0 -6.76 0zM1063.12 283.5 a3.38 3.38 0 1 0 6.76 0 a3.38 3.38 0 1 0 -6.76 0zM739.12 256.5 a3.38 3.38 0 1 0 6.76 0 a3.38 3.38 0 1 0 -6.76 0zM901.12 283.5 a3.38 3.38 0 1 0 6.76 0 a3.38 3.38 0 1 0 -6.76 0z" fill="black"></path><path d="M928.12 364.5 a3.38 3.38 0 1 0 6.76 0 a3.38 3.38 0 1 0 -6.76 0zM1306.12 310.5 a3.38 3.38 0 1 0 6.76 0 a3.38 3.38 0 1 0 -6.76 0zM793.12 337.5 a3.38 3.38 0 1 0 6.76 0 a3.38 3.38 0 1 0 -6.76 0zM1117.12 310.5 a3.38 3.38 0 1 0 6.76 0 a3.38 3.38 0 1 0 -6.76 0zM1009.12 391.5 a3.38 3.38 0 1 0 6.76 0 a3.38 3.38 0 1 0 -6.76 0zM1144.12 310.5 a3.38 3.38 0 1 0 6.76 0 a3.38 3.38 0 1 0 -6.76 0z" fill="black"></path><path d="M874.12 175.5 a3.38 3.38 0 1 0 6.76 0 a3.38 3.38 0 1 0 -6.76 0zM1306.12 229.5 a3.38 3.38 0 1 0 6.76 0 a3.38 3.38 0 1 0 -6.76 0z" fill="black"></path><path d="M496.12 418.5 a3.38 3.38 0 1 0 6.76 0 a3.38 3.38 0 1 0 -6.76 0zM496.12 337.5 a3.38 3.38 0 1 0 6.76 0 a3.38 3.38 0 1 0 -6.76 0zM523.12 391.5 a3.38 3.38 0 1 0 6.76 0 a3.38 3.38 0 1 0 -6.76 0zM847.12 391.5 a3.38 3.38 0 1 0 6.76 0 a3.38 3.38 0 1 0 -6.76 0zM658.12 445.5 a3.38 3.38 0 1 0 6.76 0 a3.38 3.38 0 1 0 -6.76 0zM793.12 391.5 a3.38 3.38 0 1 0 6.76 0 a3.38 3.38 0 1 0 -6.76 0zM955.12 391.5 a3.38 3.38 0 1 0 6.76 0 a3.38 3.38 0 1 0 -6.76 0zM1036.12 391.5 a3.38 3.38 0 1 0 6.76 0 a3.38 3.38 0 1 0 -6.76 0zM874.12 418.5 a3.38 3.38 0 1 0 6.76 0 a3.38 3.38 0 1 0 -6.76 0zM577.12 391.5 a3.38 3.38 0 1 0 6.76 0 a3.38 3.38 0 1 0 -6.76 0z" fill="black"></path><path d="M712.12 121.5 a3.38 3.38 0 1 0 6.76 0 a3.38 3.38 0 1 0 -6.76 0zM847.12 148.5 a3.38 3.38 0 1 0 6.76 0 a3.38 3.38 0 1 0 -6.76 0zM793.12 148.5 a3.38 3.38 0 1 0 6.76 0 a3.38 3.38 0 1 0 -6.76 0zM1036.12 148.5 a3.38 3.38 0 1 0 6.76 0 a3.38 3.38 0 1 0 -6.76 0zM1333.12 175.5 a3.38 3.38 0 1 0 6.76 0 a3.38 3.38 0 1 0 -6.76 0zM1360.12 175.5 a3.38 3.38 0 1 0 6.76 0 a3.38 3.38 0 1 0 -6.76 0z" fill="black"></path><path d="M577.12 445.5 a3.38 3.38 0 1 0 6.76 0 a3.38 3.38 0 1 0 -6.76 0zM550.12 472.5 a3.38 3.38 0 1 0 6.76 0 a3.38 3.38 0 1 0 -6.76 0zM604.12 445.5 a3.38 3.38 0 1 0 6.76 0 a3.38 3.38 0 1 0 -6.76 0z" fill="black"></path><path d="M631.12 94.5 a3.38 3.38 0 1 0 6.76 0 a3.38 3.38 0 1 0 -6.76 0zM874.12 94.5 a3.38 3.38 0 1 0 6.76 0 a3.38 3.38 0 1 0 -6.76 0zM1387.12 175.5 a3.38 3.38 0 1 0 6.76 0 a3.38 3.38 0 1 0 -6.76 0zM928.12 67.5 a3.38 3.38 0 1 0 6.76 0 a3.38 3.38 0 1 0 -6.76 0zM577.12 121.5 a3.38 3.38 0 1 0 6.76 0 a3.38 3.38 0 1 0 -6.76 0zM604.12 67.5 a3.38 3.38 0 1 0 6.76 0 a3.38 3.38 0 1 0 -6.76 0zM712.12 67.5 a3.38 3.38 0 1 0 6.76 0 a3.38 3.38 0 1 0 -6.76 0zM658.12 121.5 a3.38 3.38 0 1 0 6.76 0 a3.38 3.38 0 1 0 -6.76 0z" fill="black"></path><path d="M550.12 499.5 a3.38 3.38 0 1 0 6.76 0 a3.38 3.38 0 1 0 -6.76 0zM1198.12 445.5 a3.38 3.38 0 1 0 6.76 0 a3.38 3.38 0 1 0 -6.76 0zM1225.12 472.5 a3.38 3.38 0 1 0 6.76 0 a3.38 3.38 0 1 0 -6.76 0zM982.12 499.5 a3.38 3.38 0 1 0 6.76 0 a3.38 3.38 0 1 0 -6.76 0zM1198.12 499.5 a3.38 3.38 0 1 0 6.76 0 a3.38 3.38 0 1 0 -6.76 0zM1090.12 445.5 a3.38 3.38 0 1 0 6.76 0 a3.38 3.38 0 1 0 -6.76 0zM928.12 499.5 a3.38 3.38 0 1 0 6.76 0 a3.38 3.38 0 1 0 -6.76 0zM1387.12 445.5 a3.38 3.38 0 1 0 6.76 0 a3.38 3.38 0 1 0 -6.76 0z" fill="black"></path><path d="M1009.12 67.5 a3.38 3.38 0 1 0 6.76 0 a3.38 3.38 0 1 0 -6.76 0zM1198.12 94.5 a3.38 3.38 0 1 0 6.76 0 a3.38 3.38 0 1 0 -6.76 0zM1036.12 94.5 a3.38 3.38 0 1 0 6.76 0 a3.38 3.38 0 1 0 -6.76 0zM1063.12 67.5 a3.38 3.38 0 1 0 6.76 0 a3.38 3.38 0 1 0 -6.76 0zM1360.12 94.5 a3.38 3.38 0 1 0 6.76 0 a3.38 3.38 0 1 0 -6.76 0z" fill="black"></path></mask></defs></svg>