<svg xmlns="http://www.w3.org/2000/svg" version="1.1" xmlns:xlink="http://www.w3.org/1999/xlink" xmlns:svgjs="http://svgjs.com/svgjs" width="1440" height="560" preserveAspectRatio="none" viewBox="0 0 1440 560"><g mask="url(&quot;#SvgjsMask1344&quot;)" fill="none"><rect width="1440" height="560" x="0" y="0" fill="rgba(255, 255, 255, 1)"></rect><g mask="url(&quot;#SvgjsMask1345&quot;)"><path d="M499.5 283.5L526.5 310.5L553.5 337.5M391.5 283.5L418.5 310.5M472.5 283.5L499.5 256.5L526.5 256.5L553.5 256.5M661.5 229.5L688.5 256.5L715.5 256.5L742.5 256.5L769.5 256.5M310.5 283.5L337.5 256.5M337.5 283.5L364.5 310.5L391.5 310.5L418.5 337.5L445.5 337.5L472.5 337.5L499.5 337.5L526.5 337.5L553.5 364.5L580.5 364.5L607.5 364.5M202.5 283.5L229.5 310.5M229.5 283.5L256.5 256.5L283.5 256.5M-13.5 283.5L13.5 283.5L40.5 283.5L67.5 310.5L94.5 310.5L121.5 310.5L148.5 310.5L175.5 310.5L202.5 283.5L229.5 283.5L256.5 283.5L283.5 283.5L310.5 283.5L337.5 283.5L364.5 283.5L391.5 283.5L418.5 283.5L445.5 283.5L472.5 283.5L499.5 283.5L526.5 283.5L553.5 283.5L580.5 283.5L607.5 283.5L634.5 256.5L661.5 229.5L688.5 229.5L715.5 229.5L742.5 229.5L769.5 229.5L796.5 229.5L823.5 229.5L850.5 229.5L877.5 229.5L904.5 229.5" stroke="rgba(88, 13, 17, 1)" stroke-width="4.5"></path><path d="M897.75 229.5 a6.75 6.75 0 1 0 13.5 0 a6.75 6.75 0 1 0 -13.5 0zM546.75 337.5 a6.75 6.75 0 1 0 13.5 0 a6.75 6.75 0 1 0 -13.5 0zM411.75 310.5 a6.75 6.75 0 1 0 13.5 0 a6.75 6.75 0 1 0 -13.5 0zM546.75 256.5 a6.75 6.75 0 1 0 13.5 0 a6.75 6.75 0 1 0 -13.5 0zM762.75 256.5 a6.75 6.75 0 1 0 13.5 0 a6.75 6.75 0 1 0 -13.5 0zM330.75 256.5 a6.75 6.75 0 1 0 13.5 0 a6.75 6.75 0 1 0 -13.5 0zM600.75 364.5 a6.75 6.75 0 1 0 13.5 0 a6.75 6.75 0 1 0 -13.5 0zM222.75 310.5 a6.75 6.75 0 1 0 13.5 0 a6.75 6.75 0 1 0 -13.5 0zM276.75 256.5 a6.75 6.75 0 1 0 13.5 0 a6.75 6.75 0 1 0 -13.5 0z" fill="rgba(88, 13, 17, 1)"></path><path d="M67.5 256.5L94.5 283.5L121.5 283.5L148.5 283.5L175.5 283.5M-13.5 256.5L13.5 256.5L40.5 256.5L67.5 256.5L94.5 256.5L121.5 256.5L148.5 256.5L175.5 256.5L202.5 256.5" stroke="rgba(88, 13, 17, 1)" stroke-width="4.5"></path><path d="M195.75 256.5 a6.75 6.75 0 1 0 13.5 0 a6.75 6.75 0 1 0 -13.5 0zM168.75 283.5 a6.75 6.75 0 1 0 13.5 0 a6.75 6.75 0 1 0 -13.5 0z" fill="rgba(88, 13, 17, 1)"></path><path d="M310.5 364.5L337.5 391.5L364.5 391.5M337.5 364.5L364.5 337.5M202.5 364.5L229.5 337.5M283.5 364.5L310.5 337.5L337.5 337.5M-13.5 310.5L13.5 310.5L40.5 310.5L67.5 337.5L94.5 337.5L121.5 337.5L148.5 337.5L175.5 337.5L202.5 364.5L229.5 364.5L256.5 364.5L283.5 364.5L310.5 364.5L337.5 364.5L364.5 364.5L391.5 364.5L418.5 364.5" stroke="rgba(88, 13, 17, 1)" stroke-width="4.5"></path><path d="M411.75 364.5 a6.75 6.75 0 1 0 13.5 0 a6.75 6.75 0 1 0 -13.5 0zM357.75 391.5 a6.75 6.75 0 1 0 13.5 0 a6.75 6.75 0 1 0 -13.5 0zM357.75 337.5 a6.75 6.75 0 1 0 13.5 0 a6.75 6.75 0 1 0 -13.5 0zM222.75 337.5 a6.75 6.75 0 1 0 13.5 0 a6.75 6.75 0 1 0 -13.5 0zM330.75 337.5 a6.75 6.75 0 1 0 13.5 0 a6.75 6.75 0 1 0 -13.5 0z" fill="rgba(88, 13, 17, 1)"></path><path d="M607.5 229.5L634.5 202.5L661.5 175.5L688.5 175.5L715.5 175.5M67.5 229.5L94.5 202.5L121.5 202.5M580.5 229.5L607.5 202.5L634.5 175.5M418.5 229.5L445.5 256.5M526.5 229.5L553.5 202.5L580.5 202.5L607.5 175.5M364.5 229.5L391.5 256.5L418.5 256.5M-13.5 229.5L13.5 229.5L40.5 229.5L67.5 229.5L94.5 229.5L121.5 229.5L148.5 229.5L175.5 229.5L202.5 229.5L229.5 229.5L256.5 229.5L283.5 229.5L310.5 229.5L337.5 229.5L364.5 229.5L391.5 229.5L418.5 229.5L445.5 229.5L472.5 229.5L499.5 229.5L526.5 229.5L553.5 229.5L580.5 229.5L607.5 229.5L634.5 229.5L661.5 202.5L688.5 202.5" stroke="rgba(88, 13, 17, 1)" stroke-width="4.5"></path><path d="M681.75 202.5 a6.75 6.75 0 1 0 13.5 0 a6.75 6.75 0 1 0 -13.5 0zM708.75 175.5 a6.75 6.75 0 1 0 13.5 0 a6.75 6.75 0 1 0 -13.5 0zM114.75 202.5 a6.75 6.75 0 1 0 13.5 0 a6.75 6.75 0 1 0 -13.5 0zM627.75 175.5 a6.75 6.75 0 1 0 13.5 0 a6.75 6.75 0 1 0 -13.5 0zM438.75 256.5 a6.75 6.75 0 1 0 13.5 0 a6.75 6.75 0 1 0 -13.5 0zM600.75 175.5 a6.75 6.75 0 1 0 13.5 0 a6.75 6.75 0 1 0 -13.5 0zM411.75 256.5 a6.75 6.75 0 1 0 13.5 0 a6.75 6.75 0 1 0 -13.5 0z" fill="rgba(88, 13, 17, 1)"></path><path d="M-13.5 337.5L13.5 337.5L40.5 337.5L67.5 364.5L94.5 364.5L121.5 364.5L148.5 364.5L175.5 364.5L202.5 391.5L229.5 391.5L256.5 391.5L283.5 391.5" stroke="rgba(88, 13, 17, 1)" stroke-width="4.5"></path><path d="M276.75 391.5 a6.75 6.75 0 1 0 13.5 0 a6.75 6.75 0 1 0 -13.5 0z" fill="rgba(88, 13, 17, 1)"></path><path d="M202.5 202.5L229.5 175.5L256.5 175.5L283.5 175.5L310.5 175.5M40.5 202.5L67.5 202.5M148.5 202.5L175.5 175.5L202.5 148.5L229.5 148.5L256.5 148.5L283.5 148.5M445.5 175.5L472.5 202.5L499.5 202.5L526.5 202.5L553.5 175.5M364.5 202.5L391.5 202.5L418.5 202.5L445.5 202.5M-13.5 202.5L13.5 202.5L40.5 202.5L67.5 175.5L94.5 175.5L121.5 175.5L148.5 202.5L175.5 202.5L202.5 202.5L229.5 202.5L256.5 202.5L283.5 202.5L310.5 202.5L337.5 202.5L364.5 202.5L391.5 175.5L418.5 175.5L445.5 175.5L472.5 175.5L499.5 175.5" stroke="rgba(88, 13, 17, 1)" stroke-width="4.5"></path><path d="M492.75 175.5 a6.75 6.75 0 1 0 13.5 0 a6.75 6.75 0 1 0 -13.5 0zM303.75 175.5 a6.75 6.75 0 1 0 13.5 0 a6.75 6.75 0 1 0 -13.5 0zM60.75 202.5 a6.75 6.75 0 1 0 13.5 0 a6.75 6.75 0 1 0 -13.5 0zM276.75 148.5 a6.75 6.75 0 1 0 13.5 0 a6.75 6.75 0 1 0 -13.5 0zM546.75 175.5 a6.75 6.75 0 1 0 13.5 0 a6.75 6.75 0 1 0 -13.5 0zM438.75 202.5 a6.75 6.75 0 1 0 13.5 0 a6.75 6.75 0 1 0 -13.5 0z" fill="rgba(88, 13, 17, 1)"></path><path d="M148.5 391.5L175.5 391.5M-13.5 364.5L13.5 364.5L40.5 364.5L67.5 391.5L94.5 391.5L121.5 391.5L148.5 391.5L175.5 418.5L202.5 418.5L229.5 418.5L256.5 418.5L283.5 418.5L310.5 418.5L337.5 418.5L364.5 418.5L391.5 418.5" stroke="rgba(88, 13, 17, 1)" stroke-width="4.5"></path><path d="M384.75 418.5 a6.75 6.75 0 1 0 13.5 0 a6.75 6.75 0 1 0 -13.5 0zM168.75 391.5 a6.75 6.75 0 1 0 13.5 0 a6.75 6.75 0 1 0 -13.5 0z" fill="rgba(88, 13, 17, 1)"></path><path d="M364.5 121.5L391.5 94.5L418.5 94.5L445.5 94.5M202.5 121.5L229.5 94.5L256.5 94.5M94.5 121.5L121.5 148.5M580.5 148.5L607.5 121.5L634.5 121.5M391.5 121.5L418.5 148.5L445.5 148.5M310.5 121.5L337.5 148.5L364.5 148.5L391.5 148.5M-13.5 175.5L13.5 175.5L40.5 175.5L67.5 148.5L94.5 121.5L121.5 121.5L148.5 121.5L175.5 121.5L202.5 121.5L229.5 121.5L256.5 121.5L283.5 121.5L310.5 121.5L337.5 121.5L364.5 121.5L391.5 121.5L418.5 121.5L445.5 121.5L472.5 148.5L499.5 148.5L526.5 148.5L553.5 148.5L580.5 148.5L607.5 148.5L634.5 148.5" stroke="rgba(88, 13, 17, 1)" stroke-width="4.5"></path><path d="M627.75 148.5 a6.75 6.75 0 1 0 13.5 0 a6.75 6.75 0 1 0 -13.5 0zM438.75 94.5 a6.75 6.75 0 1 0 13.5 0 a6.75 6.75 0 1 0 -13.5 0zM249.75 94.5 a6.75 6.75 0 1 0 13.5 0 a6.75 6.75 0 1 0 -13.5 0zM114.75 148.5 a6.75 6.75 0 1 0 13.5 0 a6.75 6.75 0 1 0 -13.5 0zM627.75 121.5 a6.75 6.75 0 1 0 13.5 0 a6.75 6.75 0 1 0 -13.5 0zM438.75 148.5 a6.75 6.75 0 1 0 13.5 0 a6.75 6.75 0 1 0 -13.5 0zM384.75 148.5 a6.75 6.75 0 1 0 13.5 0 a6.75 6.75 0 1 0 -13.5 0z" fill="rgba(88, 13, 17, 1)"></path><path d="M715.5 445.5L742.5 418.5L769.5 391.5M904.5 445.5L931.5 472.5L958.5 499.5L985.5 499.5L1012.5 499.5M94.5 418.5L121.5 445.5L148.5 472.5L175.5 472.5M283.5 445.5L310.5 472.5M634.5 418.5L661.5 445.5L688.5 472.5L715.5 472.5L742.5 472.5L769.5 472.5L796.5 472.5M796.5 445.5L823.5 418.5L850.5 418.5L877.5 418.5L904.5 418.5L931.5 418.5L958.5 418.5L985.5 418.5L1012.5 418.5L1039.5 445.5M607.5 418.5L634.5 391.5M931.5 445.5L958.5 445.5L985.5 445.5L1012.5 445.5M67.5 418.5L94.5 445.5L121.5 472.5L148.5 499.5L175.5 499.5M-13.5 391.5L13.5 391.5L40.5 391.5L67.5 418.5L94.5 418.5L121.5 418.5L148.5 418.5L175.5 445.5L202.5 445.5L229.5 445.5L256.5 445.5L283.5 445.5L310.5 445.5L337.5 445.5L364.5 445.5L391.5 445.5L418.5 445.5L445.5 445.5L472.5 418.5L499.5 418.5L526.5 418.5L553.5 418.5L580.5 418.5L607.5 418.5L634.5 418.5L661.5 418.5L688.5 445.5L715.5 445.5L742.5 445.5L769.5 445.5L796.5 445.5L823.5 445.5L850.5 445.5L877.5 445.5L904.5 445.5L931.5 445.5L958.5 472.5L985.5 472.5L1012.5 472.5" stroke="rgba(88, 13, 17, 1)" stroke-width="4.5"></path><path d="M1005.75 472.5 a6.75 6.75 0 1 0 13.5 0 a6.75 6.75 0 1 0 -13.5 0zM762.75 391.5 a6.75 6.75 0 1 0 13.5 0 a6.75 6.75 0 1 0 -13.5 0zM1005.75 499.5 a6.75 6.75 0 1 0 13.5 0 a6.75 6.75 0 1 0 -13.5 0zM168.75 472.5 a6.75 6.75 0 1 0 13.5 0 a6.75 6.75 0 1 0 -13.5 0zM303.75 472.5 a6.75 6.75 0 1 0 13.5 0 a6.75 6.75 0 1 0 -13.5 0zM789.75 472.5 a6.75 6.75 0 1 0 13.5 0 a6.75 6.75 0 1 0 -13.5 0zM1032.75 445.5 a6.75 6.75 0 1 0 13.5 0 a6.75 6.75 0 1 0 -13.5 0zM627.75 391.5 a6.75 6.75 0 1 0 13.5 0 a6.75 6.75 0 1 0 -13.5 0zM1005.75 445.5 a6.75 6.75 0 1 0 13.5 0 a6.75 6.75 0 1 0 -13.5 0zM168.75 499.5 a6.75 6.75 0 1 0 13.5 0 a6.75 6.75 0 1 0 -13.5 0z" fill="rgba(88, 13, 17, 1)"></path><path d="M175.5 94.5L202.5 94.5M148.5 94.5L175.5 67.5M94.5 94.5L121.5 67.5L148.5 67.5M-13.5 148.5L13.5 148.5L40.5 148.5L67.5 121.5L94.5 94.5L121.5 94.5L148.5 94.5L175.5 94.5L202.5 67.5L229.5 67.5L256.5 67.5L283.5 94.5" stroke="rgba(88, 13, 17, 1)" stroke-width="4.5"></path><path d="M276.75 94.5 a6.75 6.75 0 1 0 13.5 0 a6.75 6.75 0 1 0 -13.5 0zM195.75 94.5 a6.75 6.75 0 1 0 13.5 0 a6.75 6.75 0 1 0 -13.5 0zM168.75 67.5 a6.75 6.75 0 1 0 13.5 0 a6.75 6.75 0 1 0 -13.5 0zM141.75 67.5 a6.75 6.75 0 1 0 13.5 0 a6.75 6.75 0 1 0 -13.5 0z" fill="rgba(88, 13, 17, 1)"></path></g></g><defs><mask id="SvgjsMask1344"><rect width="1440" height="560" fill="#ffffff"></rect></mask><mask id="SvgjsMask1345"><rect width="1440" height="560" fill="white"></rect><path d="M901.12 229.5 a3.38 3.38 0 1 0 6.76 0 a3.38 3.38 0 1 0 -6.76 0zM550.12 337.5 a3.38 3.38 0 1 0 6.76 0 a3.38 3.38 0 1 0 -6.76 0zM415.12 310.5 a3.38 3.38 0 1 0 6.76 0 a3.38 3.38 0 1 0 -6.76 0zM550.12 256.5 a3.38 3.38 0 1 0 6.76 0 a3.38 3.38 0 1 0 -6.76 0zM766.12 256.5 a3.38 3.38 0 1 0 6.76 0 a3.38 3.38 0 1 0 -6.76 0zM334.12 256.5 a3.38 3.38 0 1 0 6.76 0 a3.38 3.38 0 1 0 -6.76 0zM604.12 364.5 a3.38 3.38 0 1 0 6.76 0 a3.38 3.38 0 1 0 -6.76 0zM226.12 310.5 a3.38 3.38 0 1 0 6.76 0 a3.38 3.38 0 1 0 -6.76 0zM280.12 256.5 a3.38 3.38 0 1 0 6.76 0 a3.38 3.38 0 1 0 -6.76 0z" fill="black"></path><path d="M199.12 256.5 a3.38 3.38 0 1 0 6.76 0 a3.38 3.38 0 1 0 -6.76 0zM172.12 283.5 a3.38 3.38 0 1 0 6.76 0 a3.38 3.38 0 1 0 -6.76 0z" fill="black"></path><path d="M415.12 364.5 a3.38 3.38 0 1 0 6.76 0 a3.38 3.38 0 1 0 -6.76 0zM361.12 391.5 a3.38 3.38 0 1 0 6.76 0 a3.38 3.38 0 1 0 -6.76 0zM361.12 337.5 a3.38 3.38 0 1 0 6.76 0 a3.38 3.38 0 1 0 -6.76 0zM226.12 337.5 a3.38 3.38 0 1 0 6.76 0 a3.38 3.38 0 1 0 -6.76 0zM334.12 337.5 a3.38 3.38 0 1 0 6.76 0 a3.38 3.38 0 1 0 -6.76 0z" fill="black"></path><path d="M685.12 202.5 a3.38 3.38 0 1 0 6.76 0 a3.38 3.38 0 1 0 -6.76 0zM712.12 175.5 a3.38 3.38 0 1 0 6.76 0 a3.38 3.38 0 1 0 -6.76 0zM118.12 202.5 a3.38 3.38 0 1 0 6.76 0 a3.38 3.38 0 1 0 -6.76 0zM631.12 175.5 a3.38 3.38 0 1 0 6.76 0 a3.38 3.38 0 1 0 -6.76 0zM442.12 256.5 a3.38 3.38 0 1 0 6.76 0 a3.38 3.38 0 1 0 -6.76 0zM604.12 175.5 a3.38 3.38 0 1 0 6.76 0 a3.38 3.38 0 1 0 -6.76 0zM415.12 256.5 a3.38 3.38 0 1 0 6.76 0 a3.38 3.38 0 1 0 -6.76 0z" fill="black"></path><path d="M280.12 391.5 a3.38 3.38 0 1 0 6.76 0 a3.38 3.38 0 1 0 -6.76 0z" fill="black"></path><path d="M496.12 175.5 a3.38 3.38 0 1 0 6.76 0 a3.38 3.38 0 1 0 -6.76 0zM307.12 175.5 a3.38 3.38 0 1 0 6.76 0 a3.38 3.38 0 1 0 -6.76 0zM64.12 202.5 a3.38 3.38 0 1 0 6.76 0 a3.38 3.38 0 1 0 -6.76 0zM280.12 148.5 a3.38 3.38 0 1 0 6.76 0 a3.38 3.38 0 1 0 -6.76 0zM550.12 175.5 a3.38 3.38 0 1 0 6.76 0 a3.38 3.38 0 1 0 -6.76 0zM442.12 202.5 a3.38 3.38 0 1 0 6.76 0 a3.38 3.38 0 1 0 -6.76 0z" fill="black"></path><path d="M388.12 418.5 a3.38 3.38 0 1 0 6.76 0 a3.38 3.38 0 1 0 -6.76 0zM172.12 391.5 a3.38 3.38 0 1 0 6.76 0 a3.38 3.38 0 1 0 -6.76 0z" fill="black"></path><path d="M631.12 148.5 a3.38 3.38 0 1 0 6.76 0 a3.38 3.38 0 1 0 -6.76 0zM442.12 94.5 a3.38 3.38 0 1 0 6.76 0 a3.38 3.38 0 1 0 -6.76 0zM253.12 94.5 a3.38 3.38 0 1 0 6.76 0 a3.38 3.38 0 1 0 -6.76 0zM118.12 148.5 a3.38 3.38 0 1 0 6.76 0 a3.38 3.38 0 1 0 -6.76 0zM631.12 121.5 a3.38 3.38 0 1 0 6.76 0 a3.38 3.38 0 1 0 -6.76 0zM442.12 148.5 a3.38 3.38 0 1 0 6.76 0 a3.38 3.38 0 1 0 -6.76 0zM388.12 148.5 a3.38 3.38 0 1 0 6.76 0 a3.38 3.38 0 1 0 -6.76 0z" fill="black"></path><path d="M1009.12 472.5 a3.38 3.38 0 1 0 6.76 0 a3.38 3.38 0 1 0 -6.76 0zM766.12 391.5 a3.38 3.38 0 1 0 6.76 0 a3.38 3.38 0 1 0 -6.76 0zM1009.12 499.5 a3.38 3.38 0 1 0 6.76 0 a3.38 3.38 0 1 0 -6.76 0zM172.12 472.5 a3.38 3.38 0 1 0 6.76 0 a3.38 3.38 0 1 0 -6.76 0zM307.12 472.5 a3.38 3.38 0 1 0 6.76 0 a3.38 3.38 0 1 0 -6.76 0zM793.12 472.5 a3.38 3.38 0 1 0 6.76 0 a3.38 3.38 0 1 0 -6.76 0zM1036.12 445.5 a3.38 3.38 0 1 0 6.76 0 a3.38 3.38 0 1 0 -6.76 0zM631.12 391.5 a3.38 3.38 0 1 0 6.76 0 a3.38 3.38 0 1 0 -6.76 0zM1009.12 445.5 a3.38 3.38 0 1 0 6.76 0 a3.38 3.38 0 1 0 -6.76 0zM172.12 499.5 a3.38 3.38 0 1 0 6.76 0 a3.38 3.38 0 1 0 -6.76 0z" fill="black"></path><path d="M280.12 94.5 a3.38 3.38 0 1 0 6.76 0 a3.38 3.38 0 1 0 -6.76 0zM199.12 94.5 a3.38 3.38 0 1 0 6.76 0 a3.38 3.38 0 1 0 -6.76 0zM172.12 67.5 a3.38 3.38 0 1 0 6.76 0 a3.38 3.38 0 1 0 -6.76 0zM145.12 67.5 a3.38 3.38 0 1 0 6.76 0 a3.38 3.38 0 1 0 -6.76 0z" fill="black"></path></mask></defs></svg>